<svg id="Layer_1" data-name="Layer 1" xmlns="http://www.w3.org/2000/svg" viewBox="0 0 220.05 43.99"><defs><style>.cls-1{fill:#fff;}.cls-2{fill:#fca311;}</style></defs><g id="cf0e7bd6-7b8b-45ef-bbc3-4a7b0309a852"><path class="cls-1" d="M53.86,32.18V9h3.07V29.34H67.59v2.84Zm26.28-16.1h3.08V32.41H80.61l-.24-1.89h0a6.4,6.4,0,0,1-1.89,1.66h0a8.53,8.53,0,0,1-2.6.47h0a6.07,6.07,0,0,1-4.5-1.89h0c-.95-1.19-1.42-3.08-1.66-5.45h0V15.84H72.8v8.52h0a6.8,6.8,0,0,0,1,4h0a3.37,3.37,0,0,0,2.84,1.42h0a7.07,7.07,0,0,0,2.13-.47h0a3.19,3.19,0,0,0,1.65-1.42h0V16.08ZM88,32.18V9h3V29.34h10.65v2.84Zm26.28-16.1h3.08V32.41h-2.6l-.24-1.89h0a6.4,6.4,0,0,1-1.89,1.66h0a8.59,8.59,0,0,1-2.61.47h0a6.1,6.1,0,0,1-4.5-1.89h0a8.89,8.89,0,0,1-1.42-5.45h0V15.84h3.08v8.52h0a6.8,6.8,0,0,0,1,4h0A3.37,3.37,0,0,0,111,29.78h0a7.07,7.07,0,0,0,2.13-.47h0a3.25,3.25,0,0,0,1.66-1.42h0V16.08Zm6.63,16.1V28.63h3.55v3.55ZM133,36.68h0a35.12,35.12,0,0,1-3.32-6.63h0a27.43,27.43,0,0,1-1.18-8h0a27.43,27.43,0,0,1,1.18-8h0A25,25,0,0,1,133,7.42h2.6A56.54,56.54,0,0,0,132.47,14h0a26.78,26.78,0,0,0-1.19,8h0a28.47,28.47,0,0,0,1.19,8.05h0a24.24,24.24,0,0,0,3.07,6.63H133Zm10.89-4.5V11.81H137V9h16.58v2.84h-6.87V32.18Zm20.13.47h0a9.25,9.25,0,0,1-4.74-1.18h0a7.74,7.74,0,0,1-3.08-3.08h0a9.27,9.27,0,0,1-.94-4.26h0a9.27,9.27,0,0,1,.94-4.26h0A8.83,8.83,0,0,1,159,16.79h0a8.23,8.23,0,0,1,4.27-1.19h0a6.78,6.78,0,0,1,5,1.9h0a6.79,6.79,0,0,1,1.89,5h0v1.66H158.27c.24,2.13.71,3.55,1.9,4.5h0a6.21,6.21,0,0,0,4.26,1.42h0a10.55,10.55,0,0,0,4.73-.95h0l.48,2.37h0A18.76,18.76,0,0,1,164,32.65ZM158.51,22H167a3.81,3.81,0,0,0-.94-2.85h0a4,4,0,0,0-3.08-.94h0a4.39,4.39,0,0,0-3.08.94h0A5.47,5.47,0,0,0,158.51,22Zm22,10.65h0a9.08,9.08,0,0,1-4.5-1.18h0a7.22,7.22,0,0,1-2.84-3.08h0a8.1,8.1,0,0,1-.95-4.26h0A8.47,8.47,0,0,1,174.37,18h0c1.42-1.66,3.56-2.37,6.4-2.37h0a9.74,9.74,0,0,1,4.5,1h0l-.48,2.6h0a8.3,8.3,0,0,0-4-.94h0a5.59,5.59,0,0,0-4,1.42h0A5.78,5.78,0,0,0,175.37,24h0a5.78,5.78,0,0,0,1.42,4.26h0a5.59,5.59,0,0,0,4,1.42h0a9.27,9.27,0,0,0,4.26-.94h0L185.5,31h0a13.66,13.66,0,0,1-1.89,1h0a8.4,8.4,0,0,1-3.08.71Zm15.39-17h0a5.65,5.65,0,0,1,4.74,2.13h0a8.35,8.35,0,0,1,1.65,5.45h0v9h-3.07V23.42h0a6.34,6.34,0,0,0-1-4h0c-.71-1-1.66-1.18-3.08-1.18h0a7.14,7.14,0,0,0-2.37.47h0A6.26,6.26,0,0,0,191,20.34h0v11.6h-3.08V7.32H191V17.5h0a5.58,5.58,0,0,1,2.13-1.42h0A11.41,11.41,0,0,1,196,15.6Zm9.23,21.08h0a33.57,33.57,0,0,0,3.08-6.63h0a27.44,27.44,0,0,0,1.19-8h0a28.91,28.91,0,0,0-1.19-8h0a24,24,0,0,0-3.08-6.63h2.61A24.71,24.71,0,0,1,211.07,14h0a27.44,27.44,0,0,1,1.19,8h0a27.77,27.77,0,0,1-1.19,8.05h0a24.94,24.94,0,0,1-3.31,6.63h-2.61Zm13.26-1H216.5l1.18-3.55H216.5V28.63h3.55V31.7ZM216.5,19.39V16.08h3.55v3.55H216.5Z" transform="translate(0 -0.04)"/></g><g id="e206e7e1-bdb9-443c-b5b6-e8936555c125"><path class="cls-2" d="M16.61,21.35V18.62a2,2,0,1,0-1.29,0v2.73a.48.48,0,0,1-.46.46h-6a.48.48,0,0,0-.4.53.47.47,0,0,0,.4.4h1.36a.47.47,0,0,1,.47.46v2.55a2,2,0,1,0,1.28.06V23.2a.48.48,0,0,1,.46-.46h5.31V36.26a1.45,1.45,0,0,1-1.45,1.43,1.41,1.41,0,0,1-.7-.19l-12.17-7a1.4,1.4,0,0,1-.72-1.23V12a1.44,1.44,0,0,1,.72-1.24l8.47-4.89a3.24,3.24,0,1,0-.64-4.54,3.28,3.28,0,0,0-.65,1.91.81.81,0,0,0,0,.22L.72,9.17A1.4,1.4,0,0,0,0,10.41V30.8A1.43,1.43,0,0,0,.72,32L18.29,42.18a1.43,1.43,0,0,0,2-.52,1.52,1.52,0,0,0,.19-.72V21.81H17.07A.47.47,0,0,1,16.61,21.35Zm-4.08,6.29a1.28,1.28,0,1,1-2.56,0,1.28,1.28,0,0,1,2.43-.57A1.32,1.32,0,0,1,12.53,27.64Zm2.79-9.79a1.25,1.25,0,0,1-.63-1.17A1.28,1.28,0,1,1,16,18,1.16,1.16,0,0,1,15.32,17.85ZM13.84,1.23a2,2,0,1,1,.27,4,2,2,0,0,1-2.3-2,2.5,2.5,0,0,1,.07-.54A2,2,0,0,1,13.84,1.23ZM40.18,12,22.61,1.86a1.43,1.43,0,0,0-2,.52,1.52,1.52,0,0,0-.19.72V22.27H25a.47.47,0,0,1,.46.47v2.55a2,2,0,1,0,1.29.06V22.74a.47.47,0,0,1,.46-.47H32a.47.47,0,0,0,.47-.45h0a.47.47,0,0,0-.47-.46h-.2a.47.47,0,0,1-.46-.46V18.15a2,2,0,1,0-1.29,0v2.74a.48.48,0,0,1-.46.46H23.16V7.78a1.45,1.45,0,0,1,1.45-1.43,1.41,1.41,0,0,1,.7.19l12.17,7a1.42,1.42,0,0,1,.72,1.24v17.3a1.42,1.42,0,0,1-.72,1.24L29,38.21a3.31,3.31,0,0,0-2.25-.64,3.24,3.24,0,1,0,3.55,3.22v-.21l9.89-5.71a1.44,1.44,0,0,0,.71-1.24V13.24A1.44,1.44,0,0,0,40.18,12ZM29.44,16.29A1.27,1.27,0,0,1,30.69,15h.08A1.28,1.28,0,0,1,32,16.35a1.27,1.27,0,0,1-2.54-.06ZM27.28,27.18a1.3,1.3,0,1,1-.55-1.05A1.29,1.29,0,0,1,27.28,27.18ZM29,41.33a2,2,0,1,1-2.18-2.53h.25a1.94,1.94,0,0,1,.71.13,2,2,0,0,1,1.3,1.88A2.34,2.34,0,0,1,29,41.33Z" transform="translate(0 -0.04)"/></g></svg>